<svg width="800" height="450" viewBox="0 0 800 450" fill="none" xmlns="http://www.w3.org/2000/svg">
<path d="M225.376 219.44C221.642 219.44 217.696 218.853 213.536 217.68C209.482 216.613 205.856 214.8 202.656 212.24C199.562 209.68 197.482 206.267 196.416 202C196.309 201.467 196.202 200.88 196.096 200.24C196.096 199.6 196.096 198.96 196.096 198.32C196.096 195.013 196.842 191.813 198.336 188.72C199.829 185.627 201.642 183.28 203.776 181.68H203.936C204.149 181.68 204.416 181.947 204.736 182.48C205.162 182.907 205.162 183.227 204.736 183.44C203.669 184.507 202.869 185.733 202.336 187.12C201.909 188.4 201.696 189.787 201.696 191.28C201.696 193.307 202.016 195.387 202.656 197.52C203.402 199.547 204.309 201.307 205.376 202.8C208.042 206.533 211.722 209.52 216.416 211.76C221.216 213.893 225.909 214.96 230.496 214.96C236.789 214.96 241.642 213.093 245.056 209.36C248.576 205.627 250.336 201.04 250.336 195.6C250.336 192.293 249.696 188.987 248.416 185.68C246.709 181.093 244.416 176.613 241.536 172.24C238.762 167.76 236.202 163.387 233.856 159.12C231.829 155.28 230.816 151.387 230.816 147.44C230.816 143.28 232.096 139.28 234.656 135.44C237.216 132.027 240.576 129.307 244.736 127.28C249.002 125.147 253.322 124.08 257.696 124.08C260.682 124.08 263.562 124.613 266.336 125.68C269.109 126.747 271.616 128.507 273.856 130.96C274.496 131.92 274.816 133.147 274.816 134.64C274.816 136.773 274.389 138.427 273.536 139.6C272.576 140.987 271.509 142.8 270.336 145.04C269.162 147.28 268.469 148.827 268.256 149.68C268.042 149.787 267.509 150 266.656 150.32C265.909 150.533 265.429 150.48 265.216 150.16C265.642 149.307 266.229 147.76 266.976 145.52C267.722 143.28 268.096 141.253 268.096 139.44C268.096 138.267 268.042 136.987 267.936 135.6C267.936 134.107 267.242 132.827 265.856 131.76C264.576 130.587 262.922 129.573 260.896 128.72C258.869 127.867 256.416 127.44 253.536 127.44C247.669 127.44 243.189 129.147 240.096 132.56C237.002 135.973 235.456 139.707 235.456 143.76C235.456 145.787 235.882 147.813 236.736 149.84C238.336 153.68 240.576 157.307 243.456 160.72C246.336 164.133 249.162 167.653 251.936 171.28C254.816 174.8 257.056 178.64 258.656 182.8C259.722 185.573 260.256 188.4 260.256 191.28C260.256 195.44 259.189 199.227 257.056 202.64C255.029 206.053 252.256 209.04 248.736 211.6C245.322 214.053 241.589 215.973 237.536 217.36C233.482 218.747 229.429 219.44 225.376 219.44ZM300.923 152.88C299.43 152.88 298.363 152.4 297.723 151.44C297.296 150.907 297.083 150.213 297.083 149.36C297.083 147.653 297.883 146.267 299.483 145.2C300.656 144.56 301.723 144.24 302.683 144.24C304.283 144.24 305.403 144.72 306.043 145.68C306.47 146.213 306.683 146.907 306.683 147.76C306.683 149.467 305.83 150.853 304.123 151.92C303.163 152.56 302.096 152.88 300.923 152.88ZM273.083 214.48C272.016 214.48 271.11 214.267 270.363 213.84C269.723 213.413 269.403 212.613 269.403 211.44C269.403 209.947 269.776 208.187 270.523 206.16C271.376 204.133 272.283 202.107 273.243 200.08C274.31 198.053 275.11 196.4 275.643 195.12C276.39 193.627 277.296 191.707 278.363 189.36C279.536 186.907 280.603 184.613 281.563 182.48C282.63 180.24 283.376 178.693 283.803 177.84C282.31 179.44 280.496 181.467 278.363 183.92C276.336 186.267 274.416 188.56 272.603 190.8C270.79 193.04 269.403 194.8 268.443 196.08C268.123 196.507 267.856 196.72 267.643 196.72C267.43 196.72 267.323 196.453 267.323 195.92C267.323 195.067 267.59 194.267 268.123 193.52C270.15 190.96 272.39 188.08 274.843 184.88C277.403 181.68 279.696 178.747 281.723 176.08C283.75 173.307 285.03 171.493 285.563 170.64C286.736 170.427 288.443 170.107 290.683 169.68C293.03 169.253 294.63 168.667 295.483 167.92C295.803 167.6 296.123 167.44 296.443 167.44C296.656 167.44 296.763 167.653 296.763 168.08C296.87 168.4 296.763 168.773 296.443 169.2C295.803 169.947 294.683 171.76 293.083 174.64C291.483 177.52 289.776 180.72 287.963 184.24C286.256 187.653 284.656 190.747 283.163 193.52C281.67 196.4 280.39 199.173 279.323 201.84C278.256 204.507 277.723 206.427 277.723 207.6C277.723 209.093 278.47 209.84 279.963 209.84C281.35 209.84 283.11 208.987 285.243 207.28C287.483 205.573 289.723 203.547 291.963 201.2C294.203 198.747 296.176 196.507 297.883 194.48C298.416 193.84 299.056 193.093 299.803 192.24C300.656 191.28 301.19 190.693 301.403 190.48C301.616 190.693 301.723 191.067 301.723 191.6C301.616 192.347 301.35 193.093 300.923 193.84C300.496 194.48 300.07 195.067 299.643 195.6C297.403 198.373 294.95 201.253 292.283 204.24C289.616 207.12 286.683 209.573 283.483 211.6C280.283 213.52 276.816 214.48 273.083 214.48ZM299.384 216.4C298.958 216.4 298.958 215.92 299.384 214.96C299.918 214 300.398 212.933 300.824 211.76C301.358 210.587 301.891 209.307 302.424 207.92C303.491 205.36 304.664 202.48 305.944 199.28C307.224 196.08 308.451 192.987 309.624 190C310.798 186.907 311.811 184.293 312.664 182.16C313.624 179.92 314.264 178.48 314.584 177.84C313.091 179.44 311.278 181.467 309.144 183.92C307.118 186.267 305.198 188.56 303.384 190.8C301.571 193.04 300.184 194.8 299.224 196.08C298.904 196.507 298.638 196.72 298.424 196.72C298.211 196.72 298.104 196.453 298.104 195.92C298.104 195.067 298.371 194.267 298.904 193.52C300.931 190.96 303.171 188.08 305.624 184.88C308.184 181.68 310.478 178.747 312.504 176.08C314.531 173.307 315.811 171.493 316.344 170.64C317.518 170.427 319.224 170.107 321.464 169.68C323.811 169.253 325.411 168.667 326.264 167.92C326.584 167.6 326.904 167.44 327.224 167.44C327.438 167.44 327.544 167.653 327.544 168.08C327.651 168.4 327.544 168.773 327.224 169.2C326.584 169.947 325.464 171.707 323.864 174.48C322.371 177.147 320.718 180.133 318.904 183.44C317.198 186.747 315.598 189.733 314.104 192.4C315.811 190.373 317.464 188.453 319.064 186.64C320.771 184.827 321.944 183.547 322.584 182.8C323.864 181.52 325.624 179.92 327.864 178C330.104 176.08 332.451 174.32 334.904 172.72C337.358 171.12 339.491 170.213 341.304 170C341.731 169.893 342.104 169.84 342.424 169.84C342.744 169.84 343.064 169.84 343.384 169.84C345.411 169.84 346.424 170.587 346.424 172.08C346.424 172.72 346.264 173.467 345.944 174.32C345.624 175.173 345.198 176.027 344.664 176.88C344.024 178.16 342.958 180.187 341.464 182.96C339.971 185.627 338.638 188.08 337.464 190.32L344.984 182.8C346.264 181.52 348.024 179.92 350.264 178C352.504 176.08 354.851 174.32 357.304 172.72C359.758 171.12 361.891 170.213 363.704 170C364.131 169.893 364.504 169.84 364.824 169.84C365.251 169.84 365.571 169.84 365.784 169.84C368.131 169.84 369.304 170.693 369.304 172.4C369.304 173.68 368.611 175.387 367.224 177.52C366.478 178.693 365.304 180.667 363.704 183.44C362.104 186.213 360.451 189.253 358.744 192.56C357.144 195.76 355.758 198.747 354.584 201.52C353.411 204.293 352.824 206.32 352.824 207.6C352.824 209.093 353.571 209.84 355.064 209.84C356.451 209.84 358.211 209.04 360.344 207.44C362.584 205.733 364.824 203.707 367.064 201.36C369.411 199.013 371.438 196.773 373.144 194.64C373.891 193.787 374.584 192.933 375.224 192.08C375.971 191.12 376.398 190.587 376.504 190.48C376.718 190.693 376.824 191.067 376.824 191.6C376.824 192.347 376.558 193.093 376.024 193.84C375.598 194.48 375.171 195.067 374.744 195.6C372.718 198.267 370.371 201.04 367.704 203.92C365.144 206.8 362.318 209.253 359.224 211.28C356.131 213.2 352.824 214.32 349.304 214.64C348.238 214.747 347.171 214.533 346.104 214C345.038 213.467 344.504 212.613 344.504 211.44C344.504 209.947 344.878 208.187 345.624 206.16C346.478 204.133 347.384 202.107 348.344 200.08C349.411 198.053 350.211 196.4 350.744 195.12C352.664 191.387 354.424 187.867 356.024 184.56C357.624 181.253 358.744 178.907 359.384 177.52C359.704 176.88 359.864 176.347 359.864 175.92C359.864 175.173 359.278 175.12 358.104 175.76C356.931 176.4 355.491 177.36 353.784 178.64C352.184 179.92 350.691 181.2 349.304 182.48C347.918 183.653 347.011 184.453 346.584 184.88C344.771 186.693 342.584 189.147 340.024 192.24C337.571 195.333 335.278 198.587 333.144 202C331.011 205.307 329.518 208.4 328.664 211.28C327.598 212.24 326.584 212.72 325.624 212.72C324.878 212.72 324.238 212.453 323.704 211.92C323.278 211.387 323.064 210.747 323.064 210C323.064 207.867 323.704 205.36 324.984 202.48C326.371 199.493 327.491 197.04 328.344 195.12C330.264 191.387 332.024 187.867 333.624 184.56C335.224 181.253 336.344 178.907 336.984 177.52C337.304 176.88 337.464 176.347 337.464 175.92C337.464 175.173 336.878 175.12 335.704 175.76C334.531 176.4 333.091 177.36 331.384 178.64C329.784 179.92 328.291 181.2 326.904 182.48C325.518 183.653 324.611 184.453 324.184 184.88C321.624 187.547 319.224 190.267 316.984 193.04C314.851 195.813 313.038 198.8 311.544 202C310.691 203.92 309.784 206.053 308.824 208.4C307.864 210.747 307.064 212.72 306.424 214.32C305.038 214.427 303.651 214.8 302.264 215.44C300.878 216.08 299.918 216.4 299.384 216.4ZM322.861 270C318.807 270 314.914 269.04 311.181 267.12C307.341 265.307 304.514 262.48 302.701 258.64C302.061 257.253 301.634 255.76 301.421 254.16C301.207 252.667 301.101 251.173 301.101 249.68V247.92C301.101 247.067 301.207 246.267 301.421 245.52C301.634 244.88 302.167 244.56 303.021 244.56C303.341 244.56 303.501 244.667 303.501 244.88C303.501 245.52 303.447 246.16 303.341 246.8C303.127 247.44 303.021 248.133 303.021 248.88C303.021 253.787 304.621 257.52 307.821 260.08C310.914 262.64 314.807 263.92 319.501 263.92C321.421 263.92 323.394 263.707 325.421 263.28C327.447 262.853 329.367 262.267 331.181 261.52C337.901 258.64 343.767 254.587 348.781 249.36C353.794 244.133 358.167 238.213 361.901 231.6C365.634 224.987 368.941 218.213 371.821 211.28C374.914 203.707 377.847 196.24 380.621 188.88C383.501 181.413 386.701 174.107 390.221 166.96C393.527 160.347 397.047 155.387 400.781 152.08C404.514 148.773 408.247 147.12 411.981 147.12C412.941 147.12 413.847 147.387 414.701 147.92C415.661 148.453 416.087 149.307 415.981 150.48L415.661 154.96C415.661 155.28 415.447 155.44 415.021 155.44C415.021 155.44 414.967 155.44 414.861 155.44C414.861 155.44 414.861 155.387 414.861 155.28C414.861 154 414.381 153.147 413.421 152.72C412.567 152.187 411.714 151.92 410.861 151.92C407.234 151.92 403.981 153.2 401.101 155.76C398.327 158.213 395.874 161.413 393.741 165.36C391.607 169.307 389.794 173.467 388.301 177.84C386.807 182.107 385.581 186.053 384.621 189.68C385.367 189.04 386.701 187.707 388.621 185.68C390.647 183.653 392.994 181.467 395.661 179.12C398.327 176.773 401.047 174.747 403.821 173.04C406.594 171.333 409.154 170.48 411.501 170.48C412.887 170.48 413.687 171.12 413.901 172.4C414.221 173.573 414.274 174.693 414.061 175.76C413.527 179.707 412.194 183.973 410.061 188.56C407.927 193.147 405.154 197.52 401.741 201.68C398.434 205.733 394.701 209.04 390.541 211.6C386.487 214.16 382.221 215.44 377.741 215.44C377.207 215.44 376.461 215.387 375.501 215.28C374.647 215.28 374.114 215.173 373.901 214.96C371.661 221.68 368.781 228.56 365.261 235.6C361.741 242.64 357.527 248.987 352.621 254.64C347.607 260.4 341.687 264.72 334.861 267.6C331.234 269.2 327.234 270 322.861 270ZM380.141 212.72C381.741 212.72 383.554 212.08 385.581 210.8C387.714 209.413 389.314 208.187 390.381 207.12C391.661 205.947 393.154 204.133 394.861 201.68C396.674 199.12 398.434 196.347 400.141 193.36C401.954 190.373 403.447 187.493 404.621 184.72C405.794 181.947 406.381 179.707 406.381 178C406.381 177.467 406.274 176.987 406.061 176.56C405.847 176.133 405.474 175.92 404.941 175.92C403.981 175.92 402.701 176.507 401.101 177.68C399.501 178.853 397.794 180.293 395.981 182C394.274 183.6 392.674 185.2 391.181 186.8C389.687 188.293 388.621 189.413 387.981 190.16C386.914 191.44 385.474 193.307 383.661 195.76C381.847 198.213 380.247 200.72 378.861 203.28C377.474 205.733 376.781 207.813 376.781 209.52C376.781 211.653 377.901 212.72 380.141 212.72ZM424.922 214.32C421.722 214.32 419.535 213.573 418.362 212.08C417.189 210.48 416.602 208.56 416.602 206.32C416.602 203.333 417.242 200.133 418.522 196.72C419.909 193.307 421.029 190.64 421.882 188.72C420.495 190.213 419.162 191.653 417.882 193.04C416.602 194.427 415.695 195.44 415.162 196.08C414.842 196.507 414.575 196.72 414.362 196.72C414.149 196.72 414.042 196.453 414.042 195.92C414.042 195.067 414.309 194.267 414.842 193.52C416.335 191.6 418.042 189.573 419.962 187.44C421.882 185.307 423.749 183.067 425.562 180.72C427.695 176.773 430.042 172.187 432.602 166.96C435.269 161.627 437.989 156.187 440.762 150.64C443.642 144.987 446.415 139.813 449.082 135.12C451.855 130.32 454.309 126.48 456.442 123.6C458.255 122.853 459.962 121.893 461.562 120.72C463.269 119.547 464.922 118.48 466.522 117.52C468.229 116.453 469.989 115.92 471.802 115.92C472.975 115.92 473.829 116.24 474.362 116.88C475.002 117.52 475.429 118.267 475.642 119.12C475.749 119.44 475.802 120.027 475.802 120.88C475.802 123.333 474.949 126.32 473.242 129.84C471.642 133.36 469.722 136.827 467.482 140.24C465.349 143.547 463.482 146.267 461.882 148.4C457.615 154.373 453.242 159.813 448.762 164.72C444.282 169.52 440.229 173.573 436.602 176.88C433.082 180.08 430.522 182.427 428.922 183.92C428.175 185.307 427.269 187.173 426.202 189.52C425.242 191.76 424.389 194.16 423.642 196.72C422.895 199.173 422.522 201.467 422.522 203.6C422.522 205.413 422.949 206.96 423.802 208.24C424.655 209.413 426.095 210 428.122 210C428.442 210 428.762 210 429.082 210C429.402 210 429.775 209.947 430.202 209.84C432.015 209.52 433.989 208.507 436.122 206.8C438.255 205.093 440.389 203.12 442.522 200.88C444.655 198.64 446.575 196.507 448.282 194.48C449.029 193.627 449.722 192.827 450.362 192.08C451.002 191.227 451.429 190.64 451.642 190.32C452.389 191.067 452.335 192.027 451.482 193.2C450.735 194.267 450.095 195.173 449.562 195.92C448.815 196.88 447.749 198.213 446.362 199.92C444.975 201.52 443.375 203.28 441.562 205.2C439.535 207.227 437.029 209.253 434.042 211.28C431.055 213.307 428.015 214.32 424.922 214.32ZM431.642 177.52C434.949 174.747 439.109 170.8 444.122 165.68C449.242 160.453 454.255 154.16 459.162 146.8C459.695 145.947 460.549 144.507 461.722 142.48C463.002 140.453 464.282 138.16 465.562 135.6C466.949 132.933 468.122 130.373 469.082 127.92C470.042 125.36 470.522 123.173 470.522 121.36C470.522 119.653 470.042 118.8 469.082 118.8C467.909 118.8 466.362 119.813 464.442 121.84C462.202 124.187 459.642 127.653 456.762 132.24C453.989 136.72 451.055 141.733 447.962 147.28C444.869 152.827 441.882 158.267 439.002 163.6C436.229 168.933 433.775 173.573 431.642 177.52ZM457.701 215.28C453.327 215.28 450.287 214.427 448.581 212.72C446.874 211.013 446.021 208.933 446.021 206.48C446.021 203.387 446.821 200.08 448.421 196.56C450.127 193.04 451.727 190.053 453.221 187.6C454.927 185.04 457.221 182.373 460.101 179.6C462.981 176.827 466.127 174.48 469.541 172.56C472.954 170.64 476.261 169.68 479.461 169.68C482.234 169.68 484.154 170.373 485.221 171.76C486.287 173.04 486.821 174.587 486.821 176.4C486.821 179.707 485.807 182.427 483.781 184.56C481.861 186.693 479.461 188.453 476.581 189.84C473.701 191.12 470.927 192.187 468.261 193.04C466.661 193.467 464.794 193.893 462.661 194.32C460.527 194.747 458.501 194.96 456.581 194.96C455.834 196.88 455.247 198.747 454.821 200.56C454.394 202.373 454.181 204.027 454.181 205.52C454.181 207.333 454.607 208.827 455.461 210C456.421 211.173 457.967 211.76 460.101 211.76C460.954 211.76 461.967 211.653 463.141 211.44C464.314 211.227 465.594 210.907 466.981 210.48C470.181 209.413 473.327 207.707 476.421 205.36C479.514 203.013 482.341 200.507 484.901 197.84C487.567 195.067 489.594 192.773 490.981 190.96C491.301 191.28 491.461 191.653 491.461 192.08C491.461 192.613 491.087 193.467 490.341 194.64C488.207 197.627 485.434 200.72 482.021 203.92C478.607 207.12 474.821 209.84 470.661 212.08C466.501 214.213 462.181 215.28 457.701 215.28ZM457.861 191.76C459.247 191.867 460.794 191.867 462.501 191.76C464.314 191.547 466.074 191.173 467.781 190.64C472.154 189.36 475.301 187.333 477.221 184.56C479.247 181.68 480.261 179.12 480.261 176.88C480.261 175.6 479.994 174.533 479.461 173.68C478.927 172.827 478.074 172.4 476.901 172.4C473.807 172.4 471.034 173.573 468.581 175.92C466.127 178.16 463.994 180.773 462.181 183.76C460.367 186.747 458.927 189.413 457.861 191.76Z" fill="black"/>
<path d="M200.074 317.48C199.008 317.48 198.101 317.267 197.354 316.84C196.608 316.413 196.234 315.613 196.234 314.44C196.234 312.947 196.608 311.187 197.354 309.16C198.208 307.133 199.114 305.107 200.074 303.08C201.034 301.053 201.834 299.4 202.474 298.12C203.008 297.16 203.701 295.667 204.554 293.64C205.514 291.507 206.474 289.32 207.434 287.08C208.501 284.733 209.354 282.76 209.994 281.16C210.741 279.56 211.114 278.76 211.114 278.76C210.154 279.827 208.874 281.32 207.274 283.24C205.781 285.16 204.128 287.187 202.314 289.32C200.608 291.347 199.008 293.267 197.514 295.08C196.128 296.893 195.114 298.227 194.474 299.08C194.154 299.507 193.888 299.72 193.674 299.72C193.461 299.72 193.354 299.453 193.354 298.92C193.354 298.067 193.621 297.267 194.154 296.52C195.434 294.92 196.981 293 198.794 290.76C200.608 288.413 202.421 286.067 204.234 283.72C206.154 281.373 207.808 279.293 209.194 277.48C208.341 277.48 207.221 277.533 205.834 277.64C204.554 277.747 203.381 277.907 202.314 278.12C201.248 278.227 200.661 278.28 200.554 278.28C200.021 278.28 200.074 277.853 200.714 277C201.354 276.147 202.208 275.293 203.274 274.44C204.341 273.587 205.141 273.16 205.674 273.16C205.781 273.16 206.634 273.213 208.234 273.32C209.834 273.32 211.008 273.32 211.754 273.32C213.888 270.44 215.968 267.133 217.994 263.4C220.128 259.667 222.208 255.56 224.234 251.08C225.088 250.973 226.528 250.387 228.554 249.32C230.688 248.147 232.341 246.973 233.514 245.8C234.048 245.267 234.474 245 234.794 245C235.434 245 235.434 245.427 234.794 246.28C234.048 247.133 232.768 248.947 230.954 251.72C229.141 254.387 227.114 257.64 224.874 261.48C222.634 265.213 220.501 269.16 218.474 273.32H231.434C232.608 273.32 233.194 273.48 233.194 273.8C233.194 274.227 232.394 274.653 230.794 275.08C228.981 275.613 227.061 275.933 225.034 276.04C223.114 276.147 221.301 276.36 219.594 276.68C217.994 277 216.821 277.693 216.074 278.76C215.434 279.507 214.528 281.107 213.354 283.56C212.181 286.013 210.901 288.84 209.514 292.04C208.234 295.133 207.114 298.28 206.154 301.48C205.194 304.573 204.608 307.187 204.394 309.32V309.96C204.394 310.813 204.661 311.507 205.194 312.04C205.728 312.573 206.261 312.84 206.794 312.84C208.181 312.84 209.941 311.987 212.074 310.28C214.314 308.573 216.608 306.547 218.954 304.2C221.301 301.747 223.328 299.507 225.034 297.48C225.781 296.627 226.421 295.827 226.954 295.08C227.594 294.333 227.968 293.853 228.074 293.64C228.288 294.067 228.394 294.387 228.394 294.6C228.394 295.24 228.181 295.933 227.754 296.68C227.434 297.427 227.061 298.067 226.634 298.6C224.608 301.267 222.154 304.093 219.274 307.08C216.394 309.96 213.301 312.413 209.994 314.44C206.794 316.467 203.488 317.48 200.074 317.48ZM249.073 317.96C247.473 317.96 246.033 317.64 244.753 317C243.58 316.36 242.993 315.187 242.993 313.48C242.993 312.52 243.206 311.453 243.633 310.28C244.593 307.827 245.873 304.84 247.473 301.32C249.18 297.8 250.886 294.387 252.593 291.08C254.3 287.667 255.633 284.893 256.593 282.76C257.233 281.48 257.553 280.573 257.553 280.04C257.553 279.08 257.02 278.867 255.953 279.4C254.886 279.933 253.713 280.68 252.433 281.64C251.153 282.6 250.193 283.347 249.553 283.88C246.78 286.44 243.846 289.48 240.753 293C237.766 296.413 234.993 300.04 232.433 303.88C229.98 307.613 228.06 311.347 226.673 315.08C226.566 315.72 225.873 316.253 224.593 316.68C223.313 317.107 222.14 317.32 221.073 317.32C219.366 317.32 218.726 316.787 219.153 315.72C221.606 310.173 224.113 304.04 226.673 297.32C229.34 290.6 232.326 283.72 235.633 276.68C238.086 271.347 240.806 265.853 243.793 260.2C246.886 254.547 250.3 249.16 254.033 244.04C257.766 238.813 261.873 234.227 266.353 230.28C270.3 226.867 274.62 224.093 279.313 221.96C284.113 219.72 289.286 218.6 294.833 218.6C297.286 218.6 299.42 219.133 301.233 220.2C303.046 221.16 304.06 222.92 304.273 225.48V226.92C304.273 228.413 304.113 229.907 303.793 231.4C303.686 231.827 303.26 232.04 302.513 232.04C302.193 232.04 302.086 231.987 302.193 231.88C302.62 229.107 301.873 227.133 299.953 225.96C298.14 224.787 295.793 224.2 292.913 224.2C287.686 224.2 282.886 225.16 278.513 227.08C274.14 229 270.086 231.56 266.353 234.76C260.593 239.773 255.58 246.173 251.313 253.96C247.046 261.747 243.366 269.693 240.273 277.8C238.78 281.747 237.286 285.693 235.793 289.64C234.406 293.587 233.073 297.267 231.793 300.68C236.593 294.28 241.18 288.787 245.553 284.2C250.033 279.613 253.926 276.36 257.233 274.44C259.9 272.947 262.3 272.2 264.433 272.2C266.46 272.2 267.473 273.053 267.473 274.76C267.473 276.253 266.726 278.173 265.233 280.52C264.486 281.693 263.313 283.667 261.713 286.44C260.22 289.213 258.62 292.253 256.913 295.56C255.313 298.76 253.926 301.747 252.753 304.52C251.58 307.293 250.993 309.32 250.993 310.6C250.993 312.307 251.74 313.16 253.233 313.16C254.086 313.16 255.046 312.893 256.113 312.36C257.286 311.827 258.14 311.347 258.673 310.92C261.553 308.787 264.38 306.173 267.153 303.08C269.926 299.987 272.273 297.267 274.193 294.92C274.3 294.813 274.353 294.973 274.353 295.4C274.353 295.827 274.246 296.467 274.033 297.32C273.926 298.067 273.606 298.707 273.073 299.24C271.9 300.84 270.673 302.387 269.393 303.88C268.22 305.267 267.046 306.653 265.873 308.04C263.846 310.387 261.393 312.627 258.513 314.76C255.74 316.893 252.593 317.96 249.073 317.96ZM281.384 317.48C280.318 317.48 279.411 317.267 278.664 316.84C277.918 316.413 277.544 315.613 277.544 314.44C277.544 312.947 277.918 311.187 278.664 309.16C279.518 307.133 280.424 305.107 281.384 303.08C282.344 301.053 283.144 299.4 283.784 298.12C285.064 295.667 286.291 293.213 287.464 290.76C288.638 288.307 289.651 286.227 290.504 284.52C291.358 282.92 291.784 281.853 291.784 281.32C291.784 280.467 291.144 280.467 289.864 281.32C288.691 282.173 287.571 283.027 286.504 283.88C284.158 286.12 281.704 288.787 279.144 291.88C276.584 294.867 274.611 297.267 273.224 299.08C272.904 299.507 272.638 299.72 272.424 299.72C272.211 299.72 272.104 299.453 272.104 298.92C272.104 298.067 272.371 297.267 272.904 296.52C274.398 294.387 276.158 292.04 278.184 289.48C280.211 286.92 282.291 284.467 284.424 282.12C286.451 279.987 288.531 277.907 290.664 275.88C292.798 273.853 295.518 272.84 298.824 272.84C301.064 272.84 302.184 273.693 302.184 275.4C302.184 276.893 301.544 278.6 300.264 280.52C299.518 281.693 298.344 283.667 296.744 286.44C295.144 289.213 293.491 292.253 291.784 295.56C290.184 298.76 288.798 301.747 287.624 304.52C286.451 307.293 285.864 309.32 285.864 310.6C285.864 312.093 286.611 312.84 288.104 312.84C289.278 312.84 290.718 312.253 292.424 311.08C294.131 309.8 295.891 308.307 297.704 306.6C301.011 303.4 303.998 299.933 306.664 296.2C309.438 292.36 311.784 288.68 313.704 285.16C315.731 281.64 317.331 278.76 318.504 276.52C318.718 276.093 318.931 275.613 319.144 275.08C319.464 274.44 319.944 274.067 320.584 273.96C321.224 273.853 322.611 273.8 324.744 273.8C326.878 273.8 328.851 273.373 330.664 272.52H330.984C331.304 272.52 331.464 272.68 331.464 273C331.464 273.853 330.771 274.493 329.384 274.92C328.104 275.347 326.611 276.627 324.904 278.76C323.304 280.893 321.704 283.507 320.104 286.6C318.504 289.587 317.064 292.68 315.784 295.88C314.504 299.08 313.544 302.013 312.904 304.68C312.264 307.347 312.104 309.32 312.424 310.6C312.851 312.093 313.598 312.84 314.664 312.84C316.051 312.84 317.971 311.987 320.424 310.28C322.984 308.573 325.598 306.547 328.264 304.2C330.931 301.747 333.118 299.507 334.824 297.48C335.571 296.627 336.264 295.773 336.904 294.92C337.544 294.067 337.971 293.533 338.184 293.32C338.291 293.427 338.398 293.64 338.504 293.96C338.611 294.173 338.664 294.387 338.664 294.6C338.558 295.347 338.291 296.093 337.864 296.84C337.438 297.48 336.958 298.067 336.424 298.6C334.398 301.267 331.944 304.093 329.064 307.08C326.291 309.96 323.251 312.413 319.944 314.44C316.744 316.467 313.438 317.48 310.024 317.48C308.958 317.48 307.731 317.213 306.344 316.68C305.064 316.147 304.424 314.973 304.424 313.16C304.424 311.773 304.798 309.907 305.544 307.56C306.291 305.107 307.091 302.707 307.944 300.36C308.904 297.907 309.704 296.093 310.344 294.92C308.958 296.947 307.251 299.24 305.224 301.8C303.304 304.253 301.331 306.44 299.304 308.36C296.638 310.92 293.758 313.107 290.664 314.92C287.678 316.627 284.584 317.48 281.384 317.48ZM336.197 319.4C335.77 319.4 335.77 318.92 336.197 317.96C336.73 317 337.21 315.933 337.637 314.76C338.17 313.587 338.704 312.307 339.237 310.92C340.304 308.36 341.477 305.48 342.757 302.28C344.037 299.08 345.264 295.987 346.437 293C347.61 289.907 348.624 287.293 349.477 285.16C350.437 282.92 351.077 281.48 351.397 280.84C349.904 282.44 348.09 284.467 345.957 286.92C343.93 289.267 342.01 291.56 340.197 293.8C338.384 296.04 336.997 297.8 336.037 299.08C335.717 299.507 335.45 299.72 335.237 299.72C335.024 299.72 334.917 299.453 334.917 298.92C334.917 298.067 335.184 297.267 335.717 296.52C337.744 293.96 339.984 291.08 342.437 287.88C344.997 284.68 347.29 281.747 349.317 279.08C351.344 276.307 352.624 274.493 353.157 273.64C354.33 273.427 356.037 273.107 358.277 272.68C360.624 272.253 362.224 271.667 363.077 270.92C363.397 270.6 363.717 270.44 364.037 270.44C364.25 270.44 364.357 270.653 364.357 271.08C364.464 271.4 364.357 271.773 364.037 272.2C363.397 272.947 362.277 274.707 360.677 277.48C359.184 280.147 357.53 283.133 355.717 286.44C354.01 289.747 352.41 292.733 350.917 295.4C352.624 293.373 354.277 291.453 355.877 289.64C357.584 287.827 358.757 286.547 359.397 285.8C360.677 284.52 362.437 282.92 364.677 281C366.917 279.08 369.264 277.32 371.717 275.72C374.17 274.12 376.304 273.213 378.117 273C378.544 272.893 378.917 272.84 379.237 272.84C379.557 272.84 379.877 272.84 380.197 272.84C382.224 272.84 383.237 273.587 383.237 275.08C383.237 275.72 383.077 276.467 382.757 277.32C382.437 278.173 382.01 279.027 381.477 279.88C380.837 281.16 379.77 283.187 378.277 285.96C376.784 288.627 375.45 291.08 374.277 293.32L381.797 285.8C383.077 284.52 384.837 282.92 387.077 281C389.317 279.08 391.664 277.32 394.117 275.72C396.57 274.12 398.704 273.213 400.517 273C400.944 272.893 401.317 272.84 401.637 272.84C402.064 272.84 402.384 272.84 402.597 272.84C404.944 272.84 406.117 273.693 406.117 275.4C406.117 276.68 405.424 278.387 404.037 280.52C403.29 281.693 402.117 283.667 400.517 286.44C398.917 289.213 397.264 292.253 395.557 295.56C393.957 298.76 392.57 301.747 391.397 304.52C390.224 307.293 389.637 309.32 389.637 310.6C389.637 312.093 390.384 312.84 391.877 312.84C393.264 312.84 395.024 312.04 397.157 310.44C399.397 308.733 401.637 306.707 403.877 304.36C406.224 302.013 408.25 299.773 409.957 297.64C410.704 296.787 411.397 295.933 412.037 295.08C412.784 294.12 413.21 293.587 413.317 293.48C413.53 293.693 413.637 294.067 413.637 294.6C413.637 295.347 413.37 296.093 412.837 296.84C412.41 297.48 411.984 298.067 411.557 298.6C409.53 301.267 407.184 304.04 404.517 306.92C401.957 309.8 399.13 312.253 396.037 314.28C392.944 316.2 389.637 317.32 386.117 317.64C385.05 317.747 383.984 317.533 382.917 317C381.85 316.467 381.317 315.613 381.317 314.44C381.317 312.947 381.69 311.187 382.437 309.16C383.29 307.133 384.197 305.107 385.157 303.08C386.224 301.053 387.024 299.4 387.557 298.12C389.477 294.387 391.237 290.867 392.837 287.56C394.437 284.253 395.557 281.907 396.197 280.52C396.517 279.88 396.677 279.347 396.677 278.92C396.677 278.173 396.09 278.12 394.917 278.76C393.744 279.4 392.304 280.36 390.597 281.64C388.997 282.92 387.504 284.2 386.117 285.48C384.73 286.653 383.824 287.453 383.397 287.88C381.584 289.693 379.397 292.147 376.837 295.24C374.384 298.333 372.09 301.587 369.957 305C367.824 308.307 366.33 311.4 365.477 314.28C364.41 315.24 363.397 315.72 362.437 315.72C361.69 315.72 361.05 315.453 360.517 314.92C360.09 314.387 359.877 313.747 359.877 313C359.877 310.867 360.517 308.36 361.797 305.48C363.184 302.493 364.304 300.04 365.157 298.12C367.077 294.387 368.837 290.867 370.437 287.56C372.037 284.253 373.157 281.907 373.797 280.52C374.117 279.88 374.277 279.347 374.277 278.92C374.277 278.173 373.69 278.12 372.517 278.76C371.344 279.4 369.904 280.36 368.197 281.64C366.597 282.92 365.104 284.2 363.717 285.48C362.33 286.653 361.424 287.453 360.997 287.88C358.437 290.547 356.037 293.267 353.797 296.04C351.664 298.813 349.85 301.8 348.357 305C347.504 306.92 346.597 309.053 345.637 311.4C344.677 313.747 343.877 315.72 343.237 317.32C341.85 317.427 340.464 317.8 339.077 318.44C337.69 319.08 336.73 319.4 336.197 319.4ZM417.113 318.44C415.726 318.44 414.073 318.173 412.153 317.64C410.233 317.213 409.273 316.04 409.273 314.12C409.273 313.373 409.433 312.52 409.753 311.56C410.073 310.6 410.393 309.747 410.713 309C411.78 306.227 412.9 303.4 414.073 300.52C415.246 297.64 416.473 294.707 417.753 291.72C416.366 293.32 415.033 294.813 413.753 296.2C412.58 297.48 411.726 298.44 411.193 299.08C410.873 299.507 410.606 299.72 410.393 299.72C410.18 299.72 410.073 299.453 410.073 298.92C410.073 298.067 410.34 297.267 410.873 296.52C412.366 294.6 414.073 292.573 415.993 290.44C417.913 288.307 419.78 286.067 421.593 283.72C426.073 274.333 431.086 265.267 436.633 256.52C442.18 247.667 448.42 239.827 455.353 233C457.486 230.973 459.886 228.893 462.553 226.76C465.22 224.627 468.046 222.813 471.033 221.32C474.126 219.827 477.166 219.08 480.153 219.08C481.753 219.08 483.193 219.507 484.473 220.36C485.86 221.213 486.606 222.547 486.713 224.36V229C486.713 229.427 486.393 229.64 485.753 229.64C485.433 229.64 485.273 229.533 485.273 229.32C485.273 227.613 484.526 226.493 483.033 225.96C481.54 225.32 480.046 225 478.553 225C472.686 225 467.406 226.547 462.713 229.64C458.02 232.627 453.86 236.573 450.233 241.48C446.606 246.28 443.353 251.613 440.473 257.48C437.593 263.24 434.98 268.947 432.633 274.6C430.393 280.147 428.26 285.107 426.233 289.48C426.233 289.48 426.233 289.587 426.233 289.8C426.233 290.013 426.286 290.12 426.393 290.12C426.5 290.12 427.353 289.32 428.953 287.72C430.66 286.013 432.74 284.04 435.193 281.8C437.753 279.56 440.42 277.64 443.193 276.04C445.966 274.333 448.526 273.48 450.873 273.48C452.046 273.48 452.793 273.907 453.113 274.76C453.433 275.507 453.593 276.36 453.593 277.32V278.76C453.06 282.707 451.673 286.973 449.433 291.56C447.3 296.147 444.526 300.52 441.113 304.68C437.806 308.733 434.073 312.04 429.913 314.6C425.86 317.16 421.593 318.44 417.113 318.44ZM419.673 315.72C421.38 315.72 423.193 315.08 425.113 313.8C427.14 312.413 428.686 311.187 429.753 310.12C431.033 308.947 432.58 307.133 434.393 304.68C436.206 302.12 437.966 299.347 439.673 296.36C441.38 293.373 442.82 290.493 443.993 287.72C445.166 284.947 445.753 282.707 445.753 281C445.753 280.467 445.646 279.987 445.433 279.56C445.22 279.133 444.846 278.92 444.313 278.92C443.353 278.92 442.073 279.507 440.473 280.68C438.98 281.853 437.326 283.293 435.513 285C433.806 286.6 432.206 288.2 430.713 289.8C429.326 291.293 428.313 292.413 427.673 293.16C426.5 294.44 425.006 296.307 423.193 298.76C421.38 301.213 419.726 303.72 418.233 306.28C416.846 308.733 416.153 310.813 416.153 312.52C416.153 314.653 417.326 315.72 419.673 315.72ZM454.322 319.4C453.895 319.4 453.895 318.92 454.322 317.96C454.855 317 455.335 315.933 455.762 314.76C456.295 313.587 456.829 312.307 457.362 310.92C458.429 308.36 459.602 305.48 460.882 302.28C462.162 299.08 463.389 295.987 464.562 293C465.735 289.907 466.749 287.293 467.602 285.16C468.562 282.92 469.202 281.48 469.522 280.84C468.029 282.44 466.215 284.467 464.082 286.92C462.055 289.267 460.135 291.56 458.322 293.8C456.509 296.04 455.122 297.8 454.162 299.08C453.842 299.507 453.575 299.72 453.362 299.72C453.149 299.72 453.042 299.453 453.042 298.92C453.042 298.067 453.309 297.267 453.842 296.52C455.869 293.96 458.109 291.08 460.562 287.88C463.122 284.68 465.415 281.747 467.442 279.08C469.469 276.307 470.749 274.493 471.282 273.64C472.455 273.427 474.162 273.107 476.402 272.68C478.749 272.253 480.349 271.667 481.202 270.92C481.522 270.6 481.842 270.44 482.162 270.44C482.375 270.44 482.482 270.653 482.482 271.08C482.589 271.4 482.482 271.773 482.162 272.2C481.522 272.947 480.402 274.707 478.802 277.48C477.309 280.147 475.655 283.133 473.842 286.44C472.135 289.747 470.535 292.733 469.042 295.4C470.322 293.693 471.709 292.04 473.202 290.44C474.695 288.84 476.135 287.293 477.522 285.8C478.802 284.52 480.562 282.92 482.802 281C485.042 279.08 487.389 277.32 489.842 275.72C492.295 274.12 494.429 273.213 496.242 273C496.669 272.893 497.042 272.84 497.362 272.84C497.789 272.84 498.109 272.84 498.322 272.84C500.669 272.84 501.842 273.693 501.842 275.4C501.842 276.68 501.149 278.387 499.762 280.52C499.015 281.693 497.842 283.667 496.242 286.44C494.749 289.107 493.202 292.04 491.602 295.24C490.109 298.333 488.775 301.267 487.602 304.04C486.535 306.707 486.002 308.68 486.002 309.96C486.002 311.453 486.749 312.2 488.242 312.2C490.055 312.2 492.029 311.293 494.162 309.48C496.402 307.667 498.802 305.373 501.362 302.6C503.922 299.72 506.482 296.68 509.042 293.48C509.255 293.693 509.362 294.067 509.362 294.6C509.362 295.347 509.095 296.093 508.562 296.84C508.135 297.48 507.709 298.067 507.282 298.6C506.215 299.987 504.775 301.747 502.962 303.88C501.255 305.907 499.495 307.933 497.682 309.96C495.869 311.88 494.215 313.427 492.722 314.6C491.655 315.347 490.269 316.147 488.562 317C486.855 317.853 485.149 318.28 483.442 318.28C481.522 318.28 480.189 317.8 479.442 316.84C478.695 315.773 478.322 314.493 478.322 313C478.322 311.293 478.642 309.48 479.282 307.56C479.922 305.64 480.615 303.827 481.362 302.12C482.215 300.307 482.855 298.973 483.282 298.12C485.202 294.387 486.962 290.867 488.562 287.56C490.162 284.253 491.282 281.907 491.922 280.52C492.242 279.88 492.402 279.347 492.402 278.92C492.402 278.173 491.815 278.12 490.642 278.76C489.469 279.4 488.029 280.36 486.322 281.64C484.722 282.92 483.229 284.2 481.842 285.48C480.455 286.653 479.549 287.453 479.122 287.88C475.175 292.04 471.709 296.68 468.722 301.8C465.842 306.813 463.389 311.987 461.362 317.32C459.975 317.427 458.589 317.8 457.202 318.44C455.815 319.08 454.855 319.4 454.322 319.4ZM527.934 317.48C526.868 317.48 525.961 317.267 525.214 316.84C524.468 316.413 524.094 315.613 524.094 314.44C524.094 312.947 524.468 311.24 525.214 309.32C525.961 307.4 526.814 305.533 527.774 303.72C528.734 301.8 529.588 300.253 530.334 299.08C526.601 303.027 522.708 306.76 518.654 310.28C516.628 311.987 514.388 313.587 511.934 315.08C509.481 316.573 506.868 317.32 504.094 317.32C503.028 317.32 502.281 317 501.854 316.36C501.428 315.613 501.214 314.76 501.214 313.8C501.214 313.267 501.268 312.893 501.374 312.68C501.908 308.52 503.241 304.2 505.374 299.72C507.508 295.24 510.121 291.027 513.214 287.08C516.308 283.133 519.454 279.933 522.654 277.48C526.281 274.707 530.281 273.32 534.654 273.32H553.054C553.588 273.32 553.854 273.533 553.854 273.96C553.854 274.813 553.374 275.24 552.414 275.24C551.348 275.24 550.281 275.933 549.214 277.32C548.148 278.6 547.348 279.667 546.814 280.52C546.068 281.693 544.894 283.667 543.294 286.44C541.694 289.213 540.041 292.253 538.334 295.56C536.734 298.76 535.348 301.747 534.174 304.52C533.001 307.293 532.414 309.32 532.414 310.6C532.414 312.093 533.161 312.84 534.654 312.84C536.254 312.84 538.068 312.093 540.094 310.6C542.121 309.107 544.148 307.293 546.174 305.16C548.308 302.92 550.228 300.733 551.934 298.6C553.748 296.36 555.188 294.6 556.254 293.32C556.894 293.96 556.841 294.867 556.094 296.04C555.454 297.107 554.868 297.96 554.334 298.6C552.201 301.373 549.748 304.253 546.974 307.24C544.201 310.12 541.161 312.573 537.854 314.6C534.654 316.52 531.348 317.48 527.934 317.48ZM510.654 311.88C511.934 311.88 513.694 310.973 515.934 309.16C518.281 307.24 520.788 304.893 523.454 302.12C526.121 299.24 528.628 296.253 530.974 293.16C533.321 289.96 535.241 287.08 536.734 284.52C538.334 281.853 539.134 279.827 539.134 278.44C539.134 277.267 538.761 276.467 538.014 276.04C537.374 275.613 536.521 275.4 535.454 275.4C533.748 275.4 531.881 276.04 529.854 277.32C527.934 278.493 526.388 279.667 525.214 280.84C523.934 282.013 522.388 283.88 520.574 286.44C518.868 288.893 517.161 291.613 515.454 294.6C513.748 297.587 512.308 300.467 511.134 303.24C509.961 306.013 509.374 308.253 509.374 309.96C509.374 311.24 509.801 311.88 510.654 311.88ZM586.486 255.88C584.992 255.88 583.926 255.4 583.286 254.44C582.859 253.907 582.646 253.213 582.646 252.36C582.646 250.653 583.446 249.267 585.046 248.2C586.219 247.56 587.286 247.24 588.246 247.24C589.846 247.24 590.966 247.72 591.606 248.68C592.032 249.213 592.246 249.907 592.246 250.76C592.246 252.467 591.392 253.853 589.686 254.92C588.726 255.56 587.659 255.88 586.486 255.88ZM558.646 317.48C557.579 317.48 556.672 317.267 555.926 316.84C555.286 316.413 554.966 315.613 554.966 314.44C554.966 312.947 555.339 311.187 556.086 309.16C556.939 307.133 557.846 305.107 558.806 303.08C559.872 301.053 560.672 299.4 561.206 298.12C561.952 296.627 562.859 294.707 563.926 292.36C565.099 289.907 566.166 287.613 567.126 285.48C568.192 283.24 568.939 281.693 569.366 280.84C567.872 282.44 566.059 284.467 563.926 286.92C561.899 289.267 559.979 291.56 558.166 293.8C556.352 296.04 554.966 297.8 554.006 299.08C553.686 299.507 553.419 299.72 553.206 299.72C552.992 299.72 552.886 299.453 552.886 298.92C552.886 298.067 553.152 297.267 553.686 296.52C555.712 293.96 557.952 291.08 560.406 287.88C562.966 284.68 565.259 281.747 567.286 279.08C569.312 276.307 570.592 274.493 571.126 273.64C572.299 273.427 574.006 273.107 576.246 272.68C578.592 272.253 580.192 271.667 581.046 270.92C581.366 270.6 581.686 270.44 582.006 270.44C582.219 270.44 582.326 270.653 582.326 271.08C582.432 271.4 582.326 271.773 582.006 272.2C581.366 272.947 580.246 274.76 578.646 277.64C577.046 280.52 575.339 283.72 573.526 287.24C571.819 290.653 570.219 293.747 568.726 296.52C567.232 299.4 565.952 302.173 564.886 304.84C563.819 307.507 563.286 309.427 563.286 310.6C563.286 312.093 564.032 312.84 565.526 312.84C566.912 312.84 568.672 311.987 570.806 310.28C573.046 308.573 575.286 306.547 577.526 304.2C579.766 301.747 581.739 299.507 583.446 297.48C583.979 296.84 584.619 296.093 585.366 295.24C586.219 294.28 586.752 293.693 586.966 293.48C587.179 293.693 587.286 294.067 587.286 294.6C587.179 295.347 586.912 296.093 586.486 296.84C586.059 297.48 585.632 298.067 585.206 298.6C582.966 301.373 580.512 304.253 577.846 307.24C575.179 310.12 572.246 312.573 569.046 314.6C565.846 316.52 562.379 317.48 558.646 317.48ZM594.547 317.32C591.347 317.32 589.16 316.573 587.987 315.08C586.814 313.48 586.227 311.56 586.227 309.32C586.227 306.333 586.867 303.133 588.147 299.72C589.534 296.307 590.654 293.64 591.507 291.72C590.12 293.213 588.787 294.653 587.507 296.04C586.227 297.427 585.32 298.44 584.787 299.08C584.467 299.507 584.2 299.72 583.987 299.72C583.774 299.72 583.667 299.453 583.667 298.92C583.667 298.067 583.934 297.267 584.467 296.52C585.96 294.6 587.667 292.573 589.587 290.44C591.507 288.307 593.374 286.067 595.187 283.72C597.32 279.773 599.667 275.187 602.227 269.96C604.894 264.627 607.614 259.187 610.387 253.64C613.267 247.987 616.04 242.813 618.707 238.12C621.48 233.32 623.934 229.48 626.067 226.6C627.88 225.853 629.587 224.893 631.187 223.72C632.894 222.547 634.547 221.48 636.147 220.52C637.854 219.453 639.614 218.92 641.427 218.92C642.6 218.92 643.454 219.24 643.987 219.88C644.627 220.52 645.054 221.267 645.267 222.12C645.374 222.44 645.427 223.027 645.427 223.88C645.427 226.333 644.574 229.32 642.867 232.84C641.267 236.36 639.347 239.827 637.107 243.24C634.974 246.547 633.107 249.267 631.507 251.4C627.24 257.373 622.867 262.813 618.387 267.72C613.907 272.52 609.854 276.573 606.227 279.88C602.707 283.08 600.147 285.427 598.547 286.92C597.8 288.307 596.894 290.173 595.827 292.52C594.867 294.76 594.014 297.16 593.267 299.72C592.52 302.173 592.147 304.467 592.147 306.6C592.147 308.413 592.574 309.96 593.427 311.24C594.28 312.413 595.72 313 597.747 313C598.067 313 598.387 313 598.707 313C599.027 313 599.4 312.947 599.827 312.84C601.64 312.52 603.614 311.507 605.747 309.8C607.88 308.093 610.014 306.12 612.147 303.88C614.28 301.64 616.2 299.507 617.907 297.48C618.654 296.627 619.347 295.827 619.987 295.08C620.627 294.227 621.054 293.64 621.267 293.32C622.014 294.067 621.96 295.027 621.107 296.2C620.36 297.267 619.72 298.173 619.187 298.92C618.44 299.88 617.374 301.213 615.987 302.92C614.6 304.52 613 306.28 611.187 308.2C609.16 310.227 606.654 312.253 603.667 314.28C600.68 316.307 597.64 317.32 594.547 317.32ZM601.267 280.52C604.574 277.747 608.734 273.8 613.747 268.68C618.867 263.453 623.88 257.16 628.787 249.8C629.32 248.947 630.174 247.507 631.347 245.48C632.627 243.453 633.907 241.16 635.187 238.6C636.574 235.933 637.747 233.373 638.707 230.92C639.667 228.36 640.147 226.173 640.147 224.36C640.147 222.653 639.667 221.8 638.707 221.8C637.534 221.8 635.987 222.813 634.067 224.84C631.827 227.187 629.267 230.653 626.387 235.24C623.614 239.72 620.68 244.733 617.587 250.28C614.494 255.827 611.507 261.267 608.627 266.6C605.854 271.933 603.4 276.573 601.267 280.52Z" fill="black"/>
</svg>
