<svg width="57" height="36" viewBox="0 0 57 36" fill="none" xmlns="http://www.w3.org/2000/svg">
<path d="M24.6737 24.0975C24.4333 24.0975 24.298 24.0524 24.4663 24.3049" stroke="black" stroke-width="2" stroke-linecap="round"/>
<path d="M32.9692 23.821C32.7991 23.8399 32.7818 24.0284 32.9692 24.0284" stroke="black" stroke-width="2" stroke-linecap="round"/>
<path d="M28.4067 25.2036C28.2274 25.876 28.0901 26.4259 27.6693 27.001C27.583 27.119 27.0095 27.5945 27.0357 27.7384C27.0857 28.0135 29.0949 28.8737 29.2363 28.5909" stroke="black" stroke-width="2" stroke-linecap="round"/>
<path d="M21.4247 30.1809C21.7443 30.6412 21.8837 31.194 22.1889 31.671C22.6095 32.3282 23.2106 32.795 23.8903 33.1688C25.0274 33.7942 26.12 34.2096 27.3928 34.4938C28.3892 34.7163 29.6308 34.8144 30.6496 34.659C31.4753 34.533 32.3086 34.0005 33.0307 33.6105C33.9158 33.1326 34.5967 32.6529 35.2121 31.84C35.7026 31.1923 36.0309 30.652 36.1492 29.8238C36.1737 29.6522 36.3843 28.8813 36.2183 28.7983" stroke="black" stroke-width="2" stroke-linecap="round"/>
<path d="M2.87093 20.9417C3.18398 20.7476 3.49531 20.6591 3.80493 20.6764C4.1058 20.6915 4.33787 20.8428 4.50114 21.1302C4.65771 21.4067 4.67054 21.6865 4.53963 21.9695C4.40202 22.2416 4.18879 22.4822 3.89993 22.6913C3.59823 22.9158 3.34591 23.1657 3.143 23.441C2.94008 23.7163 2.78737 24.0726 2.68487 24.5098C2.63977 24.7022 2.61421 24.8899 2.60819 25.073C2.59342 25.254 2.61002 25.4194 2.65797 25.569C2.69718 25.7166 2.77314 25.8451 2.88586 25.9545C2.98984 26.0619 3.13365 26.1372 3.31728 26.1802C3.50092 26.2233 3.66653 26.2252 3.81409 26.186C3.95497 26.136 4.08785 26.061 4.21274 25.9612C4.33094 25.8505 4.43909 25.7236 4.53721 25.5806C4.63737 25.4288 4.73521 25.2672 4.83073 25.0959L5.75659 23.3894C5.96662 23.0051 6.18723 22.674 6.41844 22.3961C6.64964 22.1181 6.90352 21.9009 7.18008 21.7443C7.44995 21.577 7.75021 21.4767 8.08088 21.4435C8.40484 21.3995 8.76796 21.4247 9.17021 21.519C9.58121 21.6153 9.94008 21.7963 10.2468 22.062C10.5448 22.3255 10.785 22.6586 10.9674 23.0611C11.141 23.4616 11.2404 23.9231 11.2655 24.4456C11.3014 24.9614 11.2487 25.521 11.1072 26.1244C11.0129 26.5267 10.8867 26.9076 10.7286 27.2672C10.5793 27.6289 10.4 27.9605 10.191 28.2621C9.98191 28.5636 9.75276 28.8328 9.50352 29.0696C9.24554 29.3043 8.9672 29.4881 8.66851 29.621C8.34617 29.7761 8.03662 29.8373 7.73985 29.8046C7.44512 29.7632 7.22897 29.5834 7.09139 29.2652C6.95586 28.9382 6.95923 28.6484 7.10148 28.3958C7.23703 28.1323 7.47445 27.9066 7.81373 27.7186C8.21777 27.4904 8.55105 27.1903 8.81354 26.8183C9.07809 26.4375 9.26264 26.0241 9.36719 25.5781C9.41639 25.3683 9.44167 25.162 9.44305 24.9594C9.43773 24.7459 9.40877 24.5547 9.35617 24.3855C9.29688 24.2055 9.2119 24.0565 9.10123 23.9383C8.98387 23.8093 8.83774 23.7243 8.66284 23.6833C8.36552 23.6136 8.12074 23.6346 7.92848 23.7464C7.72749 23.8561 7.54097 24.0614 7.36893 24.3624L6.2713 26.3884C6.09106 26.7244 5.88533 27.0313 5.65413 27.3092C5.41418 27.5851 5.15286 27.8144 4.87015 27.9972C4.58948 28.1713 4.28512 28.289 3.95705 28.3505C3.62024 28.4099 3.25945 28.3945 2.87468 28.3043C2.39373 28.1916 2.00091 27.998 1.69622 27.7237C1.39153 27.4493 1.16343 27.1237 1.01192 26.7468C0.853711 26.3592 0.773388 25.9344 0.77095 25.4726C0.759768 25.0087 0.81055 24.5363 0.923298 24.0553C1.0996 23.3033 1.35493 22.6666 1.68931 22.1454C2.01494 21.6221 2.40881 21.2209 2.87093 20.9417Z" fill="black"/>
<path d="M9.44831 13.7303C9.21107 13.524 9.08315 13.2878 9.06456 13.0217C9.04596 12.7556 9.13979 12.504 9.34604 12.2667C9.55229 12.0295 9.78551 11.905 10.0457 11.8931C10.3118 11.8746 10.5635 11.9684 10.8007 12.1746L14.3797 15.2861C14.6169 15.4923 14.7415 15.7255 14.7533 15.9857C14.7778 16.245 14.6869 16.4933 14.4806 16.7306C14.2744 16.9678 14.0382 17.0957 13.7721 17.1143C13.5128 17.1388 13.2645 17.0479 13.0273 16.8417L9.44831 13.7303ZM8.30391 9.78976C8.55471 10.0078 8.69162 10.2815 8.71464 10.611C8.73678 10.9278 8.63883 11.2116 8.42079 11.4624C8.20276 11.7132 7.9324 11.853 7.60973 11.8819C7.28617 11.8982 6.99899 11.7973 6.7482 11.5792C6.4974 11.3612 6.36093 11.0938 6.33879 10.777C6.31577 10.4476 6.41328 10.1574 6.63131 9.90665C6.84935 9.65585 7.12014 9.52233 7.4437 9.50609C7.76637 9.47717 8.05311 9.57173 8.30391 9.78976Z" fill="black"/>
<path d="M24.7257 4.61806C24.614 4.35321 24.437 4.16464 24.1948 4.05235C23.949 3.93177 23.6854 3.9308 23.404 4.04943C23.1226 4.16806 22.9393 4.35744 22.854 4.61758C22.7687 4.87772 22.7941 5.16917 22.9302 5.49195L24.0659 8.1859C24.188 8.47557 24.2053 8.73632 24.1179 8.96814C24.0422 9.20474 23.8595 9.38411 23.5698 9.50623C23.2801 9.62834 23.02 9.63565 22.7895 9.52814C22.5625 9.4289 22.3879 9.23445 22.2658 8.94478L21.0882 6.15151C20.9766 5.88667 20.7996 5.6981 20.5573 5.5858C20.3115 5.46523 20.0479 5.46425 19.7665 5.58288C19.4851 5.70151 19.3018 5.89089 19.2165 6.15103C19.1313 6.41117 19.1567 6.70263 19.2927 7.0254L20.4284 9.71935C20.5505 10.009 20.5637 10.2715 20.468 10.5068C20.384 10.7469 20.1972 10.928 19.9075 11.0501C19.6178 11.1723 19.3536 11.1813 19.1148 11.0773C18.8795 10.9815 18.7008 10.7888 18.5787 10.4992L16.7783 6.22857C16.6457 5.91407 16.629 5.64331 16.7283 5.41627C16.824 5.18097 17.0126 5.004 17.294 4.88537C17.5588 4.77372 17.8065 4.77165 18.037 4.87916C18.2758 4.98318 18.4506 5.14343 18.5614 5.35991C18.5799 5.01093 18.6892 4.69196 18.889 4.40302C19.0888 4.11408 19.3998 3.88063 19.8219 3.70269C20.2357 3.52823 20.6104 3.49213 20.9459 3.59436C21.2814 3.6966 21.5651 3.88403 21.797 4.15666C21.9121 3.2504 22.4497 2.5949 23.4097 2.19017C23.6911 2.07154 23.9775 1.99953 24.269 1.97413C24.557 1.94045 24.8328 1.97039 25.0964 2.06395C25.3565 2.14923 25.5962 2.30161 25.8155 2.52109C26.043 2.73709 26.2352 3.0313 26.3922 3.40374L27.753 6.63151C27.8751 6.92118 27.8883 7.18367 27.7926 7.41898C27.7003 7.66257 27.5093 7.84542 27.2197 7.96754C26.9217 8.09315 26.6575 8.10219 26.427 7.99468C26.1999 7.89545 26.0253 7.70099 25.9032 7.41132L24.7257 4.61806Z" fill="black"/>
<path d="M54.0527 27.3382C54.2112 27.3063 54.3486 27.2375 54.4647 27.1317C54.5827 27.0347 54.6768 26.9105 54.7471 26.7589C54.8192 26.6162 54.8649 26.4558 54.8841 26.2779C54.9121 26.0982 54.9075 25.9159 54.8704 25.731C54.8332 25.5461 54.767 25.3761 54.6718 25.2212C54.5853 25.0645 54.4804 24.9299 54.357 24.8172C54.2354 24.7134 54.1005 24.6352 53.9525 24.5824C53.8063 24.5385 53.6539 24.5325 53.4954 24.5644L54.0527 27.3382ZM50.9209 29.3279C50.5772 29.0763 50.3003 28.7472 50.0903 28.3405C49.8716 27.9355 49.7117 27.4821 49.6109 26.9801C49.4994 26.4254 49.484 25.9155 49.5646 25.4504C49.647 24.9941 49.8087 24.5905 50.0497 24.2398C50.2995 23.8873 50.6207 23.5937 51.0133 23.3591C51.4059 23.1245 51.8532 22.9567 52.3551 22.8559C52.8394 22.7586 53.2991 22.7441 53.7343 22.8124C54.18 22.8877 54.5809 23.0362 54.9369 23.2578C55.2929 23.4795 55.5944 23.7716 55.8413 24.1342C56.09 24.5057 56.2639 24.938 56.363 25.4311C56.4638 25.933 56.4748 26.398 56.3959 26.8261C56.317 27.2542 56.172 27.6269 55.9609 27.9442C55.7516 28.2702 55.4894 28.5382 55.1743 28.7481C54.868 28.9562 54.5299 29.0974 54.1601 29.1718C53.7902 29.2461 53.5075 29.2296 53.3119 29.1223C53.1163 29.015 52.9813 28.7765 52.907 28.4066L52.1878 24.8271C52.0028 24.8643 51.8347 24.9393 51.6833 25.0521C51.5407 25.1632 51.4175 25.3025 51.3138 25.4699C51.2188 25.6356 51.1555 25.8224 51.124 26.0302C51.0925 26.2381 51.0989 26.4521 51.1431 26.6723C51.2121 27.0157 51.3224 27.2913 51.4741 27.499C51.6275 27.7155 51.8136 27.9118 52.0321 28.0877C52.2278 28.2408 52.3495 28.4362 52.3973 28.674C52.445 28.9117 52.388 29.1293 52.2261 29.3267C52.0748 29.5312 51.8732 29.6221 51.6213 29.5994C51.38 29.5838 51.1465 29.4933 50.9209 29.3279Z" fill="black"/>
<path d="M50.8774 8.78873C51.1118 8.57922 51.3558 8.48157 51.6095 8.49577C51.8758 8.51068 52.1137 8.63532 52.3232 8.86969C52.5327 9.10406 52.627 9.35106 52.6061 9.61069C52.5979 9.87103 52.4766 10.106 52.2423 10.3155L47.0192 14.9846C46.6978 15.2719 46.6389 15.5294 46.8424 15.7571C46.8663 15.7839 46.8843 15.8039 46.8963 15.8173C46.9209 15.8314 46.9486 15.8489 46.9792 15.8697C47.1803 16.0272 47.3072 16.2029 47.36 16.3967C47.4254 16.5912 47.3987 16.7837 47.2799 16.9743C47.1544 17.1708 46.9881 17.3014 46.7809 17.3661C46.5864 17.4316 46.3839 17.4139 46.1732 17.313C45.9066 17.19 45.6296 16.9677 45.3423 16.6463C44.8275 16.0704 44.6003 15.5266 44.6608 15.0147C44.7339 14.5036 45.0651 13.9846 45.6544 13.4578L50.8774 8.78873Z" fill="black"/>
<path d="M36.7499 8.79306C36.6195 9.07908 36.4353 9.26656 36.1973 9.35548C35.9556 9.45257 35.6917 9.4359 35.4057 9.30548C35.1197 9.17506 34.93 8.98491 34.8366 8.73504C34.7395 8.49335 34.7562 8.22948 34.8866 7.94345L38.0447 1.01745C38.1751 0.731418 38.3593 0.543945 38.5973 0.455025C38.8352 0.366107 39.1013 0.388721 39.3955 0.522869C39.6407 0.634658 39.8011 0.791692 39.8767 0.993968C39.9522 1.19624 39.9564 1.4252 39.8892 1.68082C40.1667 1.46187 40.4943 1.34964 40.8719 1.34414C41.2577 1.34236 41.6427 1.42905 42.0268 1.60418C42.4272 1.78677 42.7477 2.03654 42.9881 2.35348C43.2286 2.67043 43.3899 3.02036 43.4719 3.40327C43.554 3.78619 43.5646 4.19578 43.5039 4.63204C43.4469 5.06014 43.3215 5.48666 43.1278 5.91162C42.9414 6.32023 42.7013 6.68455 42.4073 7.00458C42.1215 7.32834 41.8012 7.58702 41.4464 7.78061C41.0997 7.97792 40.7279 8.08973 40.331 8.11602C39.9384 8.15421 39.546 8.08387 39.1538 7.90501C38.8024 7.74478 38.5053 7.53035 38.2625 7.26171C38.0198 6.99308 37.8901 6.68222 37.8734 6.32911L36.7499 8.79306ZM38.8618 3.96648C38.6457 4.44047 38.5731 4.88118 38.644 5.28861C38.7267 5.6916 38.9602 5.98066 39.3443 6.1558C39.7284 6.33093 40.0956 6.31576 40.446 6.11027C40.8082 5.90033 41.0974 5.55837 41.3135 5.08438C41.5334 4.60221 41.6019 4.15964 41.5191 3.75665C41.4445 3.35739 41.2152 3.07019 40.8311 2.89506C40.447 2.71992 40.0757 2.73323 39.7171 2.935C39.3668 3.14049 39.0817 3.48431 38.8618 3.96648Z" fill="black"/>
<path fill-rule="evenodd" clip-rule="evenodd" d="M19.676 22.019C17.6694 25.5125 16.9633 30.0928 16.9633 34.2749C16.9633 34.9127 16.4463 35.4297 15.8085 35.4297C15.1707 35.4297 14.6537 34.9127 14.6537 34.2749C14.6537 29.903 15.3807 24.86 17.6733 20.8687C20.0121 16.797 23.9609 13.8735 30.1394 13.8735C33.1459 13.8735 35.6227 14.5503 37.6329 15.7703C39.6417 16.9895 41.1176 18.7103 42.1871 20.6957C44.3054 24.6282 44.8708 29.6749 44.8708 34.2749C44.8708 34.9127 44.3538 35.4297 43.716 35.4297C43.0782 35.4297 42.5612 34.9127 42.5612 34.2749C42.5612 29.7863 41.9953 25.2097 40.1537 21.791C39.2433 20.1009 38.0321 18.7142 36.4346 17.7447C34.8386 16.7761 32.7898 16.1831 30.1394 16.1831C24.8531 16.1831 21.6365 18.606 19.676 22.019Z" fill="black"/>
</svg>
