<?xml version="1.0" standalone="no"?>
<!DOCTYPE svg PUBLIC "-//W3C//DTD SVG 20010904//EN"
 "http://www.w3.org/TR/2001/REC-SVG-20010904/DTD/svg10.dtd">
<svg version="1.0" xmlns="http://www.w3.org/2000/svg"
 width="400.000000pt" height="400.000000pt" viewBox="0 0 400.000000 400.000000"
 preserveAspectRatio="xMidYMid meet">

<g transform="translate(0.000000,400.000000) scale(0.100000,-0.100000)"
fill="#000000" stroke="none">
<path d="M2030 3649 c-82 -12 -167 -46 -237 -95 -56 -40 -173 -159 -212 -217
-161 -237 -241 -374 -387 -662 -67 -132 -141 -284 -164 -337 -37 -86 -60 -119
-60 -89 0 5 -20 19 -45 31 -36 17 -61 21 -137 21 -151 -1 -262 -43 -313 -119
-31 -46 -31 -70 -1 -131 35 -67 74 -85 189 -83 49 0 97 4 108 7 29 10 23 -10
-8 -25 -17 -9 -78 -16 -158 -20 l-130 -5 2 -30 c3 -33 23 -51 100 -90 70 -36
119 -41 183 -20 28 9 53 15 56 13 2 -3 -5 -34 -16 -69 -20 -63 -22 -65 -81
-93 -34 -16 -109 -57 -168 -91 -273 -157 -321 -211 -276 -318 38 -92 103 -130
240 -142 39 -3 83 -9 99 -12 l29 -5 -7 -103 c-12 -182 19 -320 92 -407 48 -57
96 -64 185 -29 103 40 327 282 389 419 l20 44 46 -7 c81 -12 293 -54 407 -81
291 -69 456 -120 990 -309 243 -86 273 -95 326 -95 63 0 98 18 132 67 72 104
90 209 67 390 -14 115 -62 431 -84 552 -9 47 -14 86 -12 89 2 2 49 -3 103 -10
69 -10 107 -12 130 -5 l32 10 -19 26 c-18 27 -63 48 -202 96 -76 27 -87 38
-88 85 0 8 21 28 48 44 205 127 256 176 276 272 8 38 -9 58 -72 86 l-44 20 61
54 c83 76 122 146 124 226 l2 62 -43 24 c-33 19 -57 24 -110 24 -72 -1 -233
-29 -347 -62 -38 -11 -71 -20 -72 -20 -1 0 -21 60 -44 133 -80 252 -178 466
-290 635 -70 103 -217 248 -299 294 -115 63 -183 76 -310 57z m194 -216 c127
-49 284 -224 392 -436 52 -102 176 -440 188 -510 1 -9 -28 -21 -264 -101 -91
-31 -181 -63 -200 -71 -19 -7 -100 -37 -180 -66 -147 -52 -306 -111 -415 -153
-33 -13 -96 -37 -140 -54 -95 -35 -276 -114 -509 -221 -49 -23 -90 -40 -92
-38 -7 6 54 183 91 262 7 17 21 53 30 80 10 28 33 84 53 125 76 161 218 447
238 480 11 19 34 60 51 90 213 385 392 588 560 630 51 12 140 5 197 -17z
m1087 -1055 c-11 -18 -49 -61 -84 -96 -59 -59 -67 -63 -117 -69 l-55 -5 -16
67 c-12 47 -13 67 -5 70 6 2 52 15 101 30 81 25 184 45 194 39 2 -2 -6 -18
-18 -36z m-435 -153 c29 -110 51 -210 47 -214 -1 -3 -14 6 -27 18 -20 19 -23
27 -15 45 8 16 5 36 -8 76 -28 85 -55 87 -212 23 l-33 -14 19 -22 c18 -21 55
-103 84 -189 14 -42 17 -43 54 -26 29 13 29 13 -21 131 -31 73 -31 78 -14 87
31 17 49 11 56 -16 5 -21 2 -31 -15 -43 -21 -16 -21 -16 33 -70 52 -51 57 -54
82 -42 15 6 28 10 29 9 1 -2 7 -22 13 -46 l10 -43 -39 -20 c-22 -11 -45 -31
-51 -44 -26 -57 26 -148 102 -179 22 -9 40 -18 40 -20 0 -2 13 -76 30 -164 41
-221 90 -573 90 -652 0 -66 -17 -110 -44 -110 -11 0 -169 52 -406 135 -52 19
-174 61 -270 95 -376 131 -697 206 -1166 273 -190 28 -222 35 -201 44 19 9 23
17 20 36 -4 20 1 28 26 40 30 15 32 15 47 -8 13 -21 19 -22 45 -13 16 5 29 14
29 19 0 5 -36 58 -81 119 l-81 109 -37 -15 c-20 -9 -42 -18 -48 -21 -17 -7
-16 -18 1 -32 9 -8 17 -43 21 -99 3 -48 9 -100 12 -116 l5 -29 -73 7 c-40 3
-75 8 -77 11 -7 7 57 247 70 263 20 24 246 129 648 302 36 16 110 45 165 66
55 20 134 51 175 67 41 16 98 38 125 48 28 10 109 38 180 64 72 26 225 79 340
120 116 40 221 78 235 84 14 5 36 9 49 8 20 -2 27 -10 37 -52z m-1903 -2 c3
-5 -5 -32 -16 -61 -19 -49 -22 -53 -46 -47 -14 4 -89 1 -168 -6 -105 -9 -146
-10 -154 -2 -22 22 124 95 224 112 67 11 155 13 160 4z m2143 -43 c11 0 10 -9
-8 -42 l-22 -43 -12 40 c-13 45 -9 59 13 51 8 -3 21 -6 29 -6z m188 -45 c20
-8 36 -19 36 -24 0 -12 -204 -131 -223 -131 -5 0 -27 82 -27 98 0 5 20 12 44
15 24 4 61 18 81 32 44 29 42 29 89 10z m-2231 -753 c-19 -5 -33 15 -33 48 0
23 1 23 24 -10 20 -29 21 -36 9 -38z m-368 1 c-3 -10 -11 -39 -16 -65 -10 -43
-14 -48 -37 -48 -52 0 -132 13 -132 21 0 10 160 107 179 108 8 1 11 -5 6 -16z
m325 -354 c211 -25 214 -26 177 -45 -37 -20 -125 -84 -231 -169 -49 -38 -101
-78 -117 -88 l-29 -19 -11 29 c-13 31 -17 282 -5 301 10 16 13 16 216 -9z"/>
<path d="M2261 2964 c-41 -34 -42 -80 -5 -118 32 -31 71 -34 107 -6 33 26 41
63 22 100 -29 55 -76 65 -124 24z"/>
<path d="M1747 2930 c-25 -20 -28 -28 -25 -69 3 -42 6 -48 41 -66 l37 -20 38
20 c32 17 37 25 40 61 4 51 -20 83 -68 90 -27 4 -42 1 -63 -16z"/>
<path d="M2198 2709 c-15 -4 -29 -5 -31 -2 -3 2 -40 -5 -83 -15 -44 -11 -116
-27 -162 -37 -46 -10 -85 -21 -87 -25 -2 -3 28 -59 66 -123 54 -90 75 -117 91
-117 13 0 69 48 155 134 108 106 134 138 131 156 -4 28 -39 40 -80 29z m-93
-149 c-49 -49 -93 -90 -97 -90 -3 0 -23 26 -42 57 -43 68 -46 64 91 97 149 37
149 37 48 -64z"/>
<path d="M2535 2125 c-33 -12 -73 -28 -90 -35 l-30 -12 22 -18 c13 -10 36 -56
54 -104 46 -129 46 -129 167 -85 59 21 63 24 57 48 -4 14 -8 28 -11 30 -2 2
-29 -6 -60 -18 -31 -12 -58 -20 -58 -19 -1 2 -7 15 -14 31 -11 26 -10 27 16
27 15 1 40 6 55 13 26 11 27 13 12 35 -19 26 -35 28 -75 7 -27 -14 -30 -14
-40 6 -14 25 -17 22 43 44 57 22 60 26 41 53 -18 26 -13 26 -89 -3z"/>
<path d="M2335 2050 c-11 -5 -47 -21 -79 -35 -53 -23 -57 -27 -42 -38 17 -12
96 -198 96 -224 0 -16 -1 -16 39 -2 36 13 36 13 2 97 -11 28 -16 52 -11 52 6
0 13 -7 16 -15 8 -19 37 -19 74 0 23 12 30 22 30 46 0 31 -34 108 -54 121 -15
10 -46 9 -71 -2z m45 -86 c13 -33 14 -30 -20 -44 -36 -15 -36 -15 -44 27 -7
32 -8 32 47 42 4 0 12 -11 17 -25z"/>
<path d="M2083 1955 c-42 -18 -73 -50 -73 -76 0 -12 14 -59 31 -105 26 -68 37
-85 61 -95 56 -23 158 29 158 81 0 12 -12 55 -26 96 -38 107 -76 132 -151 99z
m63 -72 c3 -10 14 -40 25 -67 18 -45 18 -51 4 -65 -23 -23 -42 -5 -70 63 -18
44 -21 63 -13 73 15 19 48 16 54 -4z"/>
<path d="M1817 1846 c-28 -12 -28 -12 -7 -31 11 -10 20 -23 20 -29 0 -6 16
-50 36 -98 42 -100 48 -103 139 -69 50 19 65 41 47 69 -8 11 -16 11 -48 -3
-48 -20 -59 -15 -74 32 -49 149 -54 155 -113 129z"/>
<path d="M1720 1808 c-24 -10 -66 -26 -93 -35 l-48 -16 19 -21 c11 -11 34 -59
52 -106 19 -47 38 -91 43 -97 14 -19 54 -15 122 11 60 23 73 38 56 65 -8 12
-18 12 -66 -3 -31 -10 -57 -17 -59 -15 -1 2 -8 17 -14 33 -11 25 -11 28 4 22
21 -8 84 14 84 29 0 6 -6 19 -12 28 -12 16 -16 16 -56 0 -37 -14 -45 -15 -53
-2 -14 23 -5 33 49 53 29 10 52 21 52 25 0 3 -8 16 -18 27 l-17 22 -45 -20z"/>
<path d="M1530 1737 c-14 -6 -26 -12 -28 -12 -1 -1 6 -43 17 -93 19 -93 14
-116 -14 -63 -24 47 -76 121 -84 121 -11 0 -71 -21 -71 -25 0 -2 12 -16 28
-32 15 -16 45 -55 67 -87 76 -110 76 -111 118 -95 43 15 43 18 26 163 -18 150
-14 143 -59 123z"/>
<path d="M1300 1647 c-14 -6 -26 -12 -28 -13 -2 -1 8 -29 22 -63 13 -33 22
-61 18 -61 -3 0 -29 23 -57 50 l-51 51 -37 -16 c-34 -14 -50 -35 -27 -35 6 0
14 -10 19 -22 5 -13 26 -65 47 -115 20 -51 40 -93 45 -93 4 0 19 4 33 10 l25
9 -24 58 c-13 32 -21 60 -19 62 3 3 26 -16 52 -42 47 -46 73 -56 101 -38 11 7
11 16 -3 57 -28 84 -81 214 -86 213 -3 0 -16 -5 -30 -12z"/>
</g>
</svg>
