<svg width="512" height="512" viewBox="0 0 512 512" fill="none" xmlns="http://www.w3.org/2000/svg">
<rect width="512" height="512" fill="black"/>
<path fill-rule="evenodd" clip-rule="evenodd" d="M147.154 227.83C125.517 265.498 117.903 314.885 117.903 359.98C117.903 366.857 112.329 372.432 105.452 372.432C98.5748 372.432 93 366.857 93 359.98C93 312.84 100.839 258.463 125.559 215.426C150.778 171.522 193.356 140 259.976 140C292.394 140 319.1 147.297 340.776 160.452C362.436 173.598 378.35 192.153 389.882 213.561C412.723 255.963 418.819 310.38 418.819 359.98C418.819 366.857 413.245 372.432 406.368 372.432C399.491 372.432 393.916 366.857 393.916 359.98C393.916 311.581 387.814 262.233 367.957 225.371C358.14 207.147 345.08 192.195 327.855 181.742C310.646 171.297 288.555 164.903 259.976 164.903C202.977 164.903 168.293 191.028 147.154 227.83Z" fill="white" stroke="white" stroke-width="45.8569" stroke-linecap="round" stroke-linejoin="round"/>
</svg>
