<svg width="130" height="17" viewBox="0 0 130 17" fill="none" xmlns="http://www.w3.org/2000/svg">
<g clip-path="url(#clip0_303_2083)">
<path d="M1.84915 9.79061C2.31144 10.3189 2.77923 10.7042 3.25253 10.9463C3.72582 11.1775 4.17711 11.293 4.60637 11.293C5.34383 11.293 5.91069 11.1279 6.30693 10.7977C6.70318 10.4675 6.9013 10.0768 6.9013 9.6255C6.9013 9.36134 6.79674 9.1412 6.58761 8.96509C6.38948 8.77798 6.13082 8.62938 5.81162 8.51931C5.50343 8.39824 5.06866 8.26616 4.50731 8.12307C3.64878 7.89192 2.93883 7.66078 2.37748 7.42963C1.81613 7.19849 1.33183 6.84077 0.924577 6.35647C0.528329 5.86116 0.330206 5.20625 0.330206 4.39174C0.330206 3.70931 0.533833 3.09843 0.941087 2.5591C1.35935 2.00875 1.90969 1.58499 2.59212 1.2878C3.27454 0.979611 4.001 0.825515 4.77148 0.825515C6.4115 0.825515 7.76534 1.45841 8.83301 2.7242L7.01688 4.19362C6.66466 3.77536 6.31794 3.46716 5.97673 3.26904C5.64652 3.05991 5.24477 2.95534 4.77148 2.95534C4.19912 2.95534 3.73133 3.09843 3.3681 3.38461C3.01588 3.67079 2.83977 4.0065 2.83977 4.39174C2.83977 4.66691 2.94434 4.89806 3.15347 5.08517C3.3626 5.27229 3.62676 5.42639 3.94596 5.54746C4.26516 5.66854 4.71644 5.81713 5.29981 5.99324C6.16935 6.2574 6.87379 6.51056 7.41312 6.75271C7.95246 6.98386 8.42025 7.33608 8.8165 7.80937C9.21275 8.27166 9.41087 8.87704 9.41087 9.6255C9.41087 10.3079 9.20174 10.9408 8.78348 11.5242C8.37622 12.0965 7.80387 12.5588 7.06641 12.9111C6.33995 13.2523 5.51994 13.4229 4.60637 13.4229C3.87992 13.4229 3.10944 13.2798 2.29493 12.9936C1.49143 12.6964 0.726453 12.1296 0 11.293L1.84915 9.79061Z" fill="#565656"/>
<path d="M13.6412 4.3257V13.4229H11.1317V4.3257H13.6412ZM11.0821 1.30431C11.0821 0.93008 11.1977 0.621888 11.4289 0.379737C11.66 0.12658 11.9792 0 12.3865 0C12.7937 0 13.1129 0.12658 13.3441 0.379737C13.5752 0.621888 13.6908 0.93008 13.6908 1.30431C13.6908 1.67855 13.5752 1.99224 13.3441 2.2454C13.1129 2.48755 12.7937 2.60863 12.3865 2.60863C11.9792 2.60863 11.66 2.48755 11.4289 2.2454C11.1977 1.99224 11.0821 1.67855 11.0821 1.30431Z" fill="#565656"/>
<path d="M27.3954 8.73395C27.3954 8.1836 27.3568 7.74883 27.2798 7.42963C27.2137 7.11044 27.0596 6.86829 26.8175 6.70318C26.5863 6.52707 26.2341 6.43902 25.7608 6.43902C25.2985 6.43902 24.9078 6.64815 24.5886 7.06641C24.2694 7.47366 24.1098 8.02951 24.1098 8.73395V13.3403H21.6002V8.73395C21.6002 7.99649 21.4902 7.42963 21.27 7.03339C21.0499 6.63714 20.6261 6.43902 19.9987 6.43902C19.7236 6.43902 19.4539 6.53258 19.1897 6.71969C18.9366 6.90681 18.7274 7.17648 18.5623 7.5287C18.3972 7.86991 18.3147 8.27166 18.3147 8.73395V13.3403H15.8051V4.42476H18.3147V5.87767C18.5568 5.4484 18.865 5.10168 19.2393 4.83752C19.6245 4.56235 20.0373 4.42476 20.4775 4.42476C21.0279 4.42476 21.5342 4.58986 21.9965 4.92007C22.4588 5.25027 22.811 5.67954 23.0531 6.20787C23.3723 5.66854 23.7576 5.23927 24.2089 4.92007C24.6712 4.58986 25.238 4.42476 25.9094 4.42476C26.5478 4.42476 27.1642 4.55134 27.7586 4.8045C28.364 5.04665 28.8703 5.48692 29.2775 6.12532C29.6958 6.76372 29.9049 7.63326 29.9049 8.73395V13.3403H27.3954V8.73395Z" fill="#565656"/>
<path d="M36.6339 11.3756C36.9971 11.3756 37.3273 11.2655 37.6245 11.0454C37.9327 10.8142 38.1749 10.5061 38.351 10.1208C38.5271 9.72456 38.6151 9.2953 38.6151 8.83301C38.6151 8.37072 38.5271 7.94696 38.351 7.56172C38.1749 7.17648 37.9327 6.87379 37.6245 6.65365C37.3273 6.42251 36.9971 6.30693 36.6339 6.30693C36.2266 6.30693 35.8524 6.42251 35.5112 6.65365C35.181 6.87379 34.9168 7.17648 34.7187 7.56172C34.5206 7.94696 34.4215 8.37072 34.4215 8.83301C34.4215 9.2953 34.5206 9.72456 34.7187 10.1208C34.9168 10.5061 35.181 10.8142 35.5112 11.0454C35.8524 11.2655 36.2266 11.3756 36.6339 11.3756ZM31.912 4.3257H34.4215V5.41538C34.7737 5.00812 35.1975 4.72745 35.6928 4.57335C36.1881 4.40825 36.5789 4.3257 36.865 4.3257C37.6906 4.3257 38.428 4.52932 39.0774 4.93658C39.7268 5.34383 40.2276 5.89418 40.5799 6.58761C40.9431 7.27003 41.1247 8.0185 41.1247 8.83301C41.1247 9.64752 40.9431 10.4015 40.5799 11.0949C40.2276 11.7884 39.7268 12.3387 39.0774 12.7459C38.428 13.1532 37.6906 13.3568 36.865 13.3568C36.5238 13.3568 36.1166 13.2853 35.6433 13.1422C35.181 12.9991 34.7737 12.6964 34.4215 12.2341V17.0221H31.912V4.3257Z" fill="#565656"/>
<path d="M44.7669 0.643901V13.4229H42.2573V0.643901H44.7669Z" fill="#565656"/>
<path d="M52.2538 8.22213C52.1657 7.67179 51.9511 7.22601 51.6099 6.88479C51.2687 6.54358 50.8229 6.37298 50.2726 6.37298C49.7222 6.37298 49.2544 6.54909 48.8692 6.9013C48.495 7.24252 48.2638 7.68279 48.1758 8.22213H52.2538ZM45.8973 8.89905C45.8973 8.07354 46.0679 7.31956 46.4092 6.63714C46.7614 5.94371 47.2677 5.39336 47.9281 4.98611C48.5995 4.57886 49.381 4.37523 50.2726 4.37523C51.4613 4.37523 52.3474 4.67241 52.9307 5.26678C53.5141 5.85015 53.8938 6.36197 54.0699 6.80224C54.3011 7.36359 54.4387 7.89192 54.4827 8.38723C54.5267 8.88254 54.5487 9.39986 54.5487 9.9392H48.1758C48.3629 10.3575 48.6325 10.7042 48.9848 10.9793C49.348 11.2435 49.7828 11.3756 50.2891 11.3756C50.7183 11.3756 51.0816 11.3041 51.3788 11.161C51.6759 11.0179 51.8961 10.8418 52.0392 10.6326L54.0864 11.3921C53.8113 11.9535 53.349 12.4268 52.6996 12.812C52.0502 13.1972 51.2412 13.3899 50.2726 13.3899C49.381 13.3899 48.5995 13.1917 47.9281 12.7955C47.2677 12.3882 46.7614 11.8434 46.4092 11.161C46.0679 10.4675 45.8973 9.71356 45.8973 8.89905Z" fill="#565656"/>
<path d="M63.258 12.8285C62.8838 12.9606 62.5426 13.0266 62.2344 13.0266C61.8382 13.0266 61.4749 12.9331 61.1447 12.746C60.8145 12.5478 60.5504 12.2837 60.3522 11.9535C60.1651 11.6233 60.0716 11.2655 60.0716 10.8803V5.54747H58.6517V4.67243H60.0716V2.77374H61.0622V4.67243H63.0599V5.54747H61.0622V10.8803C61.0622 11.2435 61.1667 11.5462 61.3759 11.7884C61.596 12.0195 61.8822 12.1351 62.2344 12.1351C62.4215 12.1351 62.6802 12.08 63.0104 11.97L63.258 12.8285Z" fill="#565656"/>
<path d="M70.8314 8.27167C70.8314 7.42414 70.6277 6.76923 70.2205 6.30695C69.8132 5.83365 69.2904 5.597 68.652 5.597C68.1897 5.597 67.7605 5.73459 67.3642 6.00976C66.968 6.27392 66.6543 6.64265 66.4231 7.11595C66.192 7.57824 66.0764 8.09006 66.0764 8.65141V13.0597H65.0858V1.13922H66.0764V6.3895C66.2855 5.9162 66.6157 5.51995 67.067 5.20075C67.5183 4.88156 68.0466 4.72196 68.652 4.72196C69.2354 4.72196 69.7692 4.86505 70.2535 5.15122C70.7378 5.4374 71.1175 5.85016 71.3927 6.3895C71.6789 6.91783 71.822 7.53971 71.822 8.25516V13.0597H70.8314V8.27167Z" fill="#565656"/>
<path d="M75.0064 9.70807C75.0064 10.5666 75.2045 11.194 75.6008 11.5902C76.008 11.9755 76.5584 12.1681 77.2518 12.1681C77.7581 12.1681 78.2094 12.047 78.6057 11.8049C79.0019 11.5627 79.3046 11.2545 79.5137 10.8803C79.7229 10.5061 79.8274 10.1373 79.8274 9.77411V4.60638H80.818V13.0597H79.8274V11.5242C79.5522 11.9755 79.211 12.3442 78.8038 12.6304C78.4075 12.9056 77.8902 13.0431 77.2518 13.0431C76.2722 13.0431 75.4852 12.7735 74.8908 12.2341C74.3075 11.6838 74.0158 10.9023 74.0158 9.88968V4.65592H75.0064V9.70807Z" fill="#565656"/>
<path d="M93.9743 7.80938C93.9743 7.21501 93.9027 6.75823 93.7597 6.43903C93.6166 6.10882 93.3964 5.87768 93.0992 5.74559C92.8131 5.61351 92.4223 5.54747 91.927 5.54747C91.5528 5.54747 91.1785 5.65204 90.8043 5.86117C90.4411 6.05929 90.1384 6.32346 89.8962 6.65366C89.6651 6.98387 89.5495 7.33058 89.5495 7.69381V13.0597H88.5589V7.80938C88.5589 7.09394 88.3828 6.53809 88.0306 6.14184C87.6894 5.74559 87.1941 5.54747 86.5447 5.54747C86.1154 5.54747 85.7136 5.65204 85.3394 5.86117C84.9762 6.0703 84.69 6.34547 84.4809 6.68668C84.2717 7.0279 84.1672 7.39112 84.1672 7.77636V13.0597H83.1766V4.65592H84.1672V6.12533C84.4093 5.69606 84.7285 5.34384 85.1248 5.06867C85.521 4.7935 85.9943 4.65592 86.5447 4.65592C87.2051 4.65592 87.7334 4.7935 88.1296 5.06867C88.5369 5.33284 88.8781 5.76211 89.1533 6.35648C89.4285 5.87217 89.8137 5.47042 90.309 5.15122C90.8043 4.82102 91.3437 4.65592 91.927 4.65592C92.9176 4.65592 93.6716 4.90357 94.1889 5.39888C94.7062 5.89419 94.9649 6.63715 94.9649 7.62777V13.0597H93.9743V7.80938Z" fill="#565656"/>
<path d="M101.214 12.3002C102.182 12.3002 102.931 11.981 103.459 11.3426C103.987 10.6932 104.251 9.87867 104.251 8.89906C104.251 7.91945 103.987 7.11045 103.459 6.47205C102.931 5.83365 102.182 5.51445 101.214 5.51445C100.685 5.51445 100.184 5.66855 99.7111 5.97674C99.2488 6.27392 98.8801 6.68668 98.6049 7.21501C98.3297 7.73233 98.1922 8.29368 98.1922 8.89906C98.1922 9.51545 98.3242 10.0823 98.5884 10.5996C98.8636 11.1169 99.2323 11.5297 99.6946 11.8379C100.157 12.1461 100.663 12.3002 101.214 12.3002ZM97.2015 1.13922H98.1922V6.57111C98.5444 5.9107 98.9957 5.4264 99.546 5.1182C100.096 4.799 100.663 4.6394 101.247 4.6394C102.083 4.6394 102.804 4.83202 103.409 5.21726C104.015 5.5915 104.472 6.10332 104.78 6.75272C105.088 7.40213 105.242 8.11757 105.242 8.89906C105.242 9.69156 105.088 10.4125 104.78 11.0619C104.472 11.7003 104.015 12.2121 103.409 12.5974C102.804 12.9826 102.072 13.1752 101.214 13.1752C100.641 13.1752 100.074 13.0101 99.513 12.6799C98.9516 12.3387 98.5114 11.8544 98.1922 11.227V13.0597H97.2015V1.13922Z" fill="#565656"/>
<path d="M112.848 8.00751C112.848 6.36748 112.105 5.54747 110.62 5.54747C110.124 5.54747 109.678 5.67405 109.282 5.92721C108.886 6.16936 108.572 6.47755 108.341 6.85179C108.121 7.22602 108.011 7.59475 108.011 7.95797V13.0597H107.02V4.65592H108.011V6.20788C108.264 5.78962 108.611 5.4319 109.051 5.13471C109.491 4.82652 110.014 4.67243 110.62 4.67243C111.588 4.67243 112.364 4.9476 112.947 5.49794C113.542 6.03728 113.839 6.81876 113.839 7.8424V13.0597H112.848V8.00751Z" fill="#565656"/>
<path d="M119.553 12.2837C120.07 12.2837 120.554 12.1406 121.006 11.8544C121.468 11.5572 121.837 11.1555 122.112 10.6492C122.387 10.1318 122.524 9.55947 122.524 8.93208C122.524 8.30469 122.387 7.73784 122.112 7.23152C121.837 6.7142 121.468 6.31245 121.006 6.02627C120.554 5.72908 120.07 5.58049 119.553 5.58049C118.936 5.58049 118.402 5.72908 117.951 6.02627C117.511 6.32345 117.175 6.73071 116.944 7.24803C116.713 7.75435 116.597 8.3157 116.597 8.93208C116.597 9.54847 116.713 10.1098 116.944 10.6161C117.175 11.1224 117.511 11.5297 117.951 11.8379C118.402 12.1351 118.936 12.2837 119.553 12.2837ZM115.607 8.93208C115.607 8.15059 115.761 7.44065 116.069 6.80225C116.377 6.16386 116.823 5.65754 117.406 5.28331C118.001 4.89807 118.711 4.70545 119.536 4.70545C120.13 4.70545 120.692 4.87055 121.22 5.20075C121.748 5.53096 122.172 5.99875 122.491 6.60413V4.65592H123.482V13.0597H122.491V11.227C122.172 11.8214 121.748 12.2947 121.22 12.6469C120.703 12.9881 120.141 13.1587 119.536 13.1587C118.722 13.1587 118.017 12.9716 117.423 12.5974C116.828 12.2121 116.377 11.7003 116.069 11.0619C115.761 10.4125 115.607 9.70256 115.607 8.93208Z" fill="#565656"/>
<path d="M126.796 4.65592V13.0597H125.805V4.65592H126.796ZM125.64 1.76661C125.64 1.5795 125.695 1.4254 125.805 1.30432C125.926 1.17224 126.091 1.1062 126.3 1.1062C126.51 1.1062 126.669 1.17224 126.779 1.30432C126.9 1.4254 126.961 1.5795 126.961 1.76661C126.961 1.96474 126.9 2.12984 126.779 2.26192C126.669 2.383 126.51 2.44354 126.3 2.44354C126.091 2.44354 125.926 2.383 125.805 2.26192C125.695 2.12984 125.64 1.96474 125.64 1.76661Z" fill="#565656"/>
<path d="M130 1.13922V13.0597H129.009V1.13922H130Z" fill="#565656"/>
</g>
<defs>
<clipPath id="clip0_303_2083">
<rect width="130" height="17" fill="white"/>
</clipPath>
</defs>
</svg>
